<svg width="0" height="0" class="hidden">
  <symbol xmlns="http://www.w3.org/2000/svg" viewBox="0 0 17.97 19" id="icon-customize">
    <defs>
      <filter id="a" x="1248" y="1509" width="17.97" height="19" filterUnits="userSpaceOnUse">
        <feFlood result="flood" flood-color="#612acf"></feFlood>
        <feComposite result="composite" operator="in" in2="SourceGraphic"></feComposite>
        <feBlend result="blend" in2="SourceGraphic"></feBlend>
      </filter>
    </defs>
    <path d="M1255.18 1510.05l-3.91-1.05-.42.42 2.08 2.08-2.03 2.04-2.08-2.09-.42.42 1.05 3.92 3.73.01-.03.03 10.46 10.51.01-.01a1.385 1.385 0 001.95-.01 1.407 1.407 0 00.02-1.96l.01-.01-10.41-10.46zm9.88 15.75a.619.619 0 01-.88 0 .619.619 0 11.88-.87.616.616 0 010 .87zm-9.68-3.35l.34.34 1.1-1.1-.71-.71 5.98-6 2.61-1.68 1.03-1.86-1.2-1.21-1.86 1.04-1.68 2.61-5.98 5.99-.72-.71-1.1 1.1.34.34a13.259 13.259 0 00-4.09 4.11l-.34-.34-1.1 1.1 2.53 2.53 1.1-1.11-.35-.34a13.048 13.048 0 004.1-4.1z" transform="translate(-1248 -1509)" fill-rule="evenodd" filter="url(#a)"></path>
  </symbol>
  <symbol xmlns="http://www.w3.org/2000/svg" viewBox="0 0 18 17" id="icon-document">
    <defs>
      <filter id="a" x="408" y="4380" width="18" height="17" filterUnits="userSpaceOnUse">
        <feFlood result="flood" flood-color="#fff"></feFlood>
        <feComposite result="composite" operator="in" in2="SourceGraphic"></feComposite>
        <feBlend result="blend" in2="SourceGraphic"></feBlend>
      </filter>
    </defs>
    <path d="M419.592 4395.58h-10.228v-14.16h10.228v2.41l1.363-1.58v-.81a1.419 1.419 0 00-1.389-1.44h-10.178a1.418 1.418 0 00-1.388 1.44v14.12a1.418 1.418 0 001.388 1.44h10.179a1.419 1.419 0 001.389-1.44v-4.65l-1.364 1.58v3.09zm-1.157-11.57a.689.689 0 00-.682-.7h-6.559a.689.689 0 00-.681.7.7.7 0 00.681.71h6.558a.7.7 0 00.683-.71zm-.94 2.26h-6.3a.711.711 0 000 1.42h5.078zm-2.548 2.94h-3.753a.7.7 0 00-.681.71.689.689 0 00.681.7h2.98zm-4.434 3.67a.691.691 0 00.681.71h2.183a1.106 1.106 0 01.044-.23l.328-1.18h-2.555a.689.689 0 00-.681.7zm10.235-8.8l-4.762 5.52-.368.42 2.622 2.44.367-.42 4.762-5.51.429-.5-2.621-2.44zm-.227 2.49l-3.122 3.62a.221.221 0 01-.153.07.189.189 0 01-.16-.05l-.154-.15a.231.231 0 01-.017-.32l3.122-3.62a.221.221 0 01.153-.07.187.187 0 01.159.05l.154.15a.229.229 0 01.018.32zm.907-1.72l.155.15a.232.232 0 01.017.32l-.04.05-.223.26-.009.01a.219.219 0 01-.153.07.168.168 0 01-.159-.06l-.155-.14a.239.239 0 01-.073-.16.212.212 0 01.057-.16l.271-.32a.223.223 0 01.312-.02zm.2-1.79l-.2.23 2.62 2.44.2-.23.445-.51-2.621-2.44zm4.373.07a.814.814 0 00-.252-.55l-1.485-1.38a.753.753 0 00-.551-.2.73.73 0 00-.526.26l-.876 1.01 2.621 2.44.875-1.01a.812.812 0 00.193-.57zm-1.123.57l-1.588-1.48.459-.53 1.587 1.48zm-10.364 10.34a.366.366 0 00.4.07l3.013-1.28-2.62-2.44-.9 3.25a.4.4 0 00.107.4zm1.031-2.79l1.522 1.42-1.184.51-.693-.65z" transform="translate(-408 -4380)" fill-rule="evenodd" filter="url(#a)"></path>
  </symbol>
  <symbol xmlns="http://www.w3.org/2000/svg" viewBox="0 0 22 25.03" id="icon-features">
    <defs>
      <filter id="a" x="652" y="1886.97" width="22" height="25.03" filterUnits="userSpaceOnUse">
        <feFlood result="flood" flood-color="#612acf"></feFlood>
        <feComposite result="composite" operator="in" in2="SourceGraphic"></feComposite>
        <feBlend result="blend" in2="SourceGraphic"></feBlend>
      </filter>
    </defs>
    <path d="M661.034 1907.3l-.5-.21a4.974 4.974 0 00-.042-1.26l.484-.26a.73.73 0 00.295-.91l-.282-.7a.573.573 0 00-.8-.34l-.485.26a3.765 3.765 0 00-.815-.86l.185-.57a.726.726 0 00-.357-.89l-.634-.26a.6.6 0 00-.775.4l-.185.57a3.457 3.457 0 00-1.109.05l-.223-.55a.579.579 0 00-.8-.34l-.614.32a.74.74 0 00-.3.92l.223.55a4.1 4.1 0 00-.753.93l-.5-.21a.6.6 0 00-.776.41l-.234.72a.761.761 0 00.018.52.626.626 0 00.34.36l.5.21a4.976 4.976 0 00.042 1.27l-.485.25a.731.731 0 00-.295.91l.283.7a.572.572 0 00.8.34l.485-.25a3.977 3.977 0 00.815.85l-.185.57a.778.778 0 00.018.53.652.652 0 00.339.36l.634.26a.5.5 0 00.462-.02.625.625 0 00.313-.38l.186-.57a3.457 3.457 0 001.109-.05l.222.55a.58.58 0 00.8.34l.614-.32a.739.739 0 00.3-.92l-.223-.55a4.091 4.091 0 00.752-.93l.5.21a.505.505 0 00.463-.02.632.632 0 00.313-.38l.234-.73a.717.717 0 00-.357-.88zm-3.32 1.8a2.2 2.2 0 01-1 .25 2.393 2.393 0 01-2.17-1.59 2.9 2.9 0 011.17-3.61 2.2 2.2 0 011-.25 2.408 2.408 0 012.17 1.59 2.9 2.9 0 01-1.17 3.61zm9.291.17l-.279-.12a2.693 2.693 0 00-.023-.7l.269-.14a.41.41 0 00.165-.51l-.157-.39a.322.322 0 00-.446-.19l-.27.14a2.686 2.686 0 00-.454-.48l.1-.31a.413.413 0 00-.2-.5l-.353-.14a.333.333 0 00-.432.22l-.1.32a1.836 1.836 0 00-.617.03l-.124-.31a.322.322 0 00-.446-.19l-.342.18a.412.412 0 00-.165.51l.125.31a2.2 2.2 0 00-.42.52l-.278-.12a.332.332 0 00-.432.22l-.131.41a.426.426 0 00.01.29.385.385 0 00.189.2l.279.12a2.694 2.694 0 00.024.7l-.27.14a.412.412 0 00-.165.51l.158.39a.322.322 0 00.446.19l.27-.14a2.3 2.3 0 00.454.47l-.1.32a.412.412 0 00.01.29.319.319 0 00.189.2l.352.15a.29.29 0 00.257-.01.363.363 0 00.175-.21l.1-.32a2.146 2.146 0 00.618-.03l.124.31a.328.328 0 00.445.19l.342-.18a.411.411 0 00.165-.51l-.124-.31a2.2 2.2 0 00.419-.52l.279.12a.29.29 0 00.257-.01.358.358 0 00.175-.22l.13-.4a.4.4 0 00-.198-.49zm-1.849 1a1.212 1.212 0 01-.555.14 1.341 1.341 0 01-1.208-.88 1.611 1.611 0 01.651-2.01 1.216 1.216 0 01.556-.14 1.343 1.343 0 011.208.88 1.612 1.612 0 01-.652 2.01zm8.179-13.11l-.843-.35a8.357 8.357 0 00-.07-2.13l.814-.43a1.222 1.222 0 00.5-1.53l-.475-1.18a.973.973 0 00-1.346-.57l-.815.43a6.944 6.944 0 00-1.371-1.44l.311-.96a1.219 1.219 0 00-.6-1.49l-1.066-.45a1.013 1.013 0 00-1.3.69l-.311.96a5.579 5.579 0 00-1.864.08l-.375-.93a.963.963 0 00-1.347-.56l-1.032.54a1.222 1.222 0 00-.5 1.53l.375.93a7.037 7.037 0 00-1.266 1.56l-.841-.35a1 1 0 00-1.3.68l-.394 1.22a1.286 1.286 0 00.03.88 1.055 1.055 0 00.571.6l.843.36a8.249 8.249 0 00.07 2.12l-.814.43a1.225 1.225 0 00-.5 1.53l.475 1.18a.973.973 0 001.346.57l.815-.43a6.892 6.892 0 001.371 1.44l-.311.96a1.3 1.3 0 00.03.89 1.082 1.082 0 00.57.6l1.066.45a.918.918 0 00.776-.04 1.1 1.1 0 00.527-.65l.312-.96a5.579 5.579 0 001.864-.08l.375.93a.974.974 0 001.347.57l1.031-.55a1.22 1.22 0 00.5-1.53l-.375-.93a6.981 6.981 0 001.266-1.56l.843.35a.884.884 0 00.777-.03 1.109 1.109 0 00.526-.65l.394-1.22a1.206 1.206 0 00-.609-1.48zm-5.582 3.02a3.568 3.568 0 01-1.678.42 4.023 4.023 0 01-3.647-2.66 4.869 4.869 0 011.966-6.07 3.564 3.564 0 011.677-.42 4.041 4.041 0 013.648 2.66 4.867 4.867 0 01-1.966 6.07z" transform="translate(-652 -1886.97)" fill-rule="evenodd" filter="url(#a)"></path>
  </symbol>
  <symbol xmlns="http://www.w3.org/2000/svg" viewBox="0 0 41.062 45" id="icon-good-design">
    <defs>
      <filter id="a" x="493.969" y="910" width="41.062" height="45" filterUnits="userSpaceOnUse">
        <feFlood result="flood" flood-color="#431d91"></feFlood>
        <feComposite result="composite" operator="in" in2="SourceGraphic"></feComposite>
        <feBlend result="blend" in2="SourceGraphic"></feBlend>
      </filter>
    </defs>
    <path d="M532.088 932.5c.1-.14.212-.282.306-.424 2.743-4.131 3.344-7.975 1.69-10.824-1.495-2.574-4.692-3.994-9-3.994-.578 0-1.172.031-1.778.08-2.153-4.518-5.269-7.334-8.8-7.334s-6.651 2.816-8.8 7.334c-.606-.049-1.2-.08-1.78-.08-4.311 0-7.508 1.42-9 3.994-1.653 2.847-1.053 6.693 1.688 10.824.1.141.208.282.307.424-.1.144-.211.285-.307.427-2.741 4.132-3.343 7.974-1.688 10.822 1.494 2.575 4.691 4 9 4 .579 0 1.174-.033 1.78-.083 2.152 4.519 5.268 7.335 8.8 7.335s6.651-2.816 8.8-7.335c.606.052 1.2.083 1.778.083 4.311 0 7.509-1.422 9-4 1.653-2.848 1.053-6.693-1.688-10.824-.096-.141-.209-.282-.308-.425zm-7-13.1c3.506 0 6.041 1.038 7.136 2.924 1.2 2.067.659 5.041-1.506 8.382a33.975 33.975 0 00-4.859-4.722 33.632 33.632 0 00-1.66-6.543c.292-.012.595-.041.886-.041zm-5.739 21.45a41.009 41.009 0 01-4.846 2.364 40.381 40.381 0 01-9.324-5.345 39.442 39.442 0 010-10.736 40.477 40.477 0 019.324-5.345 40.784 40.784 0 014.846 2.365 41.6 41.6 0 014.478 2.98 39.442 39.442 0 010 10.736 41.159 41.159 0 01-4.481 2.981zm3.939.049a29.929 29.929 0 01-1.332 4.445 29.435 29.435 0 01-4.561-1.069c1.021-.482 2.032-1 3.032-1.569s1.937-1.181 2.858-1.806zm-11.676 3.376a29.473 29.473 0 01-4.562 1.069 30.362 30.362 0 01-1.331-4.444c.923.628 1.869 1.237 2.861 1.806s2.011 1.086 3.029 1.569zm-8.809-8.381a29.019 29.019 0 01-3.21-3.395 29.407 29.407 0 013.21-3.393c-.085 1.108-.143 2.235-.143 3.393s.055 2.288.14 3.395zm2.918-11.792a29.913 29.913 0 011.331-4.443 29.125 29.125 0 014.562 1.068c-1.018.483-2.032 1-3.032 1.57s-1.943 1.179-2.864 1.803zm11.676-3.375a29.555 29.555 0 014.562-1.068 30.252 30.252 0 011.331 4.444c-.921-.627-1.869-1.239-2.861-1.806s-2.016-1.087-3.035-1.57zm8.81 8.381a29.577 29.577 0 013.21 3.391 29.273 29.273 0 01-3.21 3.395c.084-1.108.142-2.234.142-3.395s-.061-2.285-.149-3.391zm-11.7-16.961c2.49 0 4.789 2.108 6.526 5.485a34.67 34.67 0 00-6.526 1.846 34.775 34.775 0 00-6.527-1.846c1.733-3.375 4.031-5.485 6.52-5.485zm-17.718 10.177c1.094-1.886 3.629-2.924 7.136-2.924.289 0 .592.029.89.041a33.6 33.6 0 00-1.66 6.543 33.886 33.886 0 00-4.861 4.722c-2.168-3.341-2.712-6.313-1.51-8.382zm7.131 23.276c-3.507 0-6.042-1.038-7.136-2.923-1.2-2.069-.658-5.042 1.5-8.384a33.886 33.886 0 004.861 4.722 33.481 33.481 0 001.66 6.544c-.293.014-.596.041-.885.041zm10.582 7.253c-2.491 0-4.789-2.108-6.527-5.484a34.893 34.893 0 006.527-1.846 34.778 34.778 0 006.526 1.846c-1.737 3.376-4.037 5.484-6.528 5.484zm17.716-10.176c-1.093 1.885-3.627 2.923-7.136 2.923-.288 0-.591-.027-.889-.041a33.626 33.626 0 001.66-6.546 34.087 34.087 0 004.861-4.72c2.162 3.342 2.707 6.315 1.504 8.384zM514.5 929.162c-1.465-1.308-4.5-1.352-4.784 1.359-.364 3.486 4.784 6.186 4.784 6.186s5.146-2.7 4.783-6.186c-.283-2.711-3.317-2.666-4.783-1.359z" transform="translate(-493.969 -910)" fill-rule="evenodd" filter="url(#a)"></path>
  </symbol>
  <symbol xmlns="http://www.w3.org/2000/svg" viewBox="0 0 21 23" id="icon-hard-work">
    <defs>
      <filter id="a" x="654" y="1508" width="21" height="23" filterUnits="userSpaceOnUse">
        <feFlood result="flood" flood-color="#612acf"></feFlood>
        <feComposite result="composite" operator="in" in2="SourceGraphic"></feComposite>
        <feBlend result="blend" in2="SourceGraphic"></feBlend>
      </filter>
    </defs>
    <path d="M674.867 1521.07a2.153 2.153 0 00-.4-.67 13.944 13.944 0 00-1.76-3.97c-1.385-2.2-5.052-5.76-6.444-6.31a1.883 1.883 0 00-.191-.05 1.124 1.124 0 00-.7-.88c-1.621-.76-3.206-1.51-4.307-1.05s-1.718 1.15-.529 3.81c1.131.83 3.369-.83 4.085.23s1.5 4.59 2.816 6.85a6.865 6.865 0 00-1.025-.07 6.5 6.5 0 00-3.833 1.15 4.624 4.624 0 00-8.377 1.36l-.2.01.115 9.52 2.363-.04.857-1.51a11.8 11.8 0 004.477-3.61 40.488 40.488 0 004.6.38 28.207 28.207 0 005.352-.76c2.293-.84 3.685-2.81 3.101-4.39z" transform="translate(-654 -1508)" fill-rule="evenodd" filter="url(#a)"></path>
  </symbol>
  <symbol xmlns="http://www.w3.org/2000/svg" viewBox="0 0 14 13" id="icon-love">
    <defs>
      <filter id="a" x="1283" y="3841" width="14" height="13" filterUnits="userSpaceOnUse">
        <feFlood result="flood" flood-color="#fff"></feFlood>
        <feComposite result="composite" operator="in" in2="SourceGraphic"></feComposite>
        <feBlend result="blend" in2="SourceGraphic"></feBlend>
      </filter>
    </defs>
    <path d="M1290 3854c-13.65-7.73-3.78-17.34 0-10.87 3.78-6.47 13.66 3.14 0 10.87z" transform="translate(-1283 -3841)" fill-rule="evenodd" filter="url(#a)"></path>
  </symbol>
  <symbol xmlns="http://www.w3.org/2000/svg" viewBox="0 0 17 14" id="icon-lovely-pages">
    <defs>
      <filter id="a" x="1249" y="1892" width="17" height="14" filterUnits="userSpaceOnUse">
        <feFlood result="flood" flood-color="#612acf"></feFlood>
        <feComposite result="composite" operator="in" in2="SourceGraphic"></feComposite>
        <feBlend result="blend" in2="SourceGraphic"></feBlend>
      </filter>
    </defs>
    <path d="M1265.1 1896.94l-6.36-.01a16.8 16.8 0 00.44-1.87 3.294 3.294 0 00-.06-1.21 4.912 4.912 0 00-.64-1.45.927.927 0 00-.79-.4h-1.24a.834.834 0 00-.89.76c0 .7 0 1.63-.02 1.66a17.464 17.464 0 01-1.67 2.46 9.106 9.106 0 01-.94 1.03.668.668 0 00-.24.51v6.6a.684.684 0 00.25.52 2.011 2.011 0 001.37.46c2.23-.01 5.84-.02 8.4-.01a.949.949 0 00.78-.37l2.26-3.27a1.414 1.414 0 00.24-.74l.01-3.91a.837.837 0 00-.9-.76zm-14.4 1.08h-.8a.83.83 0 00-.9.75v6.48a.836.836 0 00.9.75h.8a.833.833 0 00.89-.75v-6.48a.826.826 0 00-.89-.75z" transform="translate(-1249 -1892)" fill-rule="evenodd" filter="url(#a)"></path>
  </symbol>
  <symbol xmlns="http://www.w3.org/2000/svg" viewBox="0 0 36 29" id="icon-made-with-love">
    <defs>
      <filter id="a" x="1088" y="920" width="36" height="29" filterUnits="userSpaceOnUse">
        <feFlood result="flood" flood-color="#431d91"></feFlood>
        <feComposite result="composite" operator="in" in2="SourceGraphic"></feComposite>
        <feBlend result="blend" in2="SourceGraphic"></feBlend>
      </filter>
    </defs>
    <path d="M1094.95 929.082a4.682 4.682 0 018.35-2.231l1.66 2.168a4.655 4.655 0 012.23-.6 9.4 9.4 0 10-17.49 1.486c.11.11 5.5 5.465 7.48 7.437a1.03 1.03 0 001.45 0c.16-.155.34-.338.54-.532l-3.29-4.279a4.649 4.649 0 01-.93-3.449zm28.57 9.238l-6.11-7.954a2.35 2.35 0 00-3.29-.432 2.24 2.24 0 00-.66.791 2.354 2.354 0 00-1.8-.832 2.344 2.344 0 00-2.32 2.059l-.23-.293a2.341 2.341 0 00-4.18 1.141l-3.49-4.535a2.332 2.332 0 00-1.86-.915 2.306 2.306 0 00-1.42.484 2.342 2.342 0 00-.44 3.28l8.74 11.362-1.62-.459a2.34 2.34 0 00-2.89 1.611 2.329 2.329 0 001.61 2.89l8.43 2.393a2.346 2.346 0 002.03-.367l9.07-6.945a2.339 2.339 0 00.43-3.279z" transform="translate(-1088 -920)" fill-rule="evenodd" filter="url(#a)"></path>
  </symbol>
  <symbol xmlns="http://www.w3.org/2000/svg" viewBox="0 0 19 19" id="icon-responsive">
    <defs>
      <filter id="a" x="653" y="1701" width="19" height="19" filterUnits="userSpaceOnUse">
        <feFlood result="flood" flood-color="#612acf"></feFlood>
        <feComposite result="composite" operator="in" in2="SourceGraphic"></feComposite>
        <feBlend result="blend" in2="SourceGraphic"></feBlend>
      </filter>
    </defs>
    <path d="M661.183 1714.41h-6.63a.294.294 0 01-.279-.3v-11.46a.294.294 0 01.279-.3h15.893a.3.3 0 01.28.3v2.51a2.739 2.739 0 011.272.49v-3a1.605 1.605 0 00-1.552-1.65h-15.893a1.605 1.605 0 00-1.552 1.65v11.46a1.605 1.605 0 001.552 1.65h5.327v2.21h-.84a1.017 1.017 0 000 2.03h2.679a3.182 3.182 0 01-.536-1.77v-3.82zm5.341 4.57v-1.46h-2.8v-9.34a.345.345 0 01.335-.35h6.327a.346.346 0 01.336.35v2.89h.478a1.469 1.469 0 01.8.24v-3.13a1.656 1.656 0 00-1.608-1.7h-6.327a1.657 1.657 0 00-1.608 1.7v10.05a1.666 1.666 0 001.608 1.71h2.748a1.873 1.873 0 01-.289-.96zm4.678-7.06h-3.086a.822.822 0 00-.8.84v6.22a.822.822 0 00.8.84h3.084a.823.823 0 00.8-.84v-6.22a.823.823 0 00-.8-.84zm-2.928 1.01h2.77v5.37h-2.77v-5.37zm1.385 6.48a.355.355 0 01-.225-.09.379.379 0 01-.112-.27.337.337 0 11.673 0 .382.382 0 01-.111.27.355.355 0 01-.225.09z" transform="translate(-653 -1701)" fill-rule="evenodd" filter="url(#a)"></path>
  </symbol>
  <symbol xmlns="http://www.w3.org/2000/svg" viewBox="0 0 18.06 22" id="icon-secure">
    <defs>
      <filter id="a" x="1280.97" y="3666" width="18.06" height="22" filterUnits="userSpaceOnUse">
        <feFlood result="flood" flood-color="#fff"></feFlood>
        <feComposite result="composite" operator="in" in2="SourceGraphic"></feComposite>
        <feBlend result="blend" in2="SourceGraphic"></feBlend>
      </filter>
    </defs>
    <path d="M1298.95 3669.44a11.919 11.919 0 01-8.95-3.44 11.919 11.919 0 01-8.95 3.44c0 6.16-1.26 14.98 8.95 18.56 10.21-3.58 8.95-12.4 8.95-18.56zm-9.69 10.83l-2.98-3.02 1.33-1.35 1.65 1.67 3.13-3.17 1.33 1.35z" transform="translate(-1280.97 -3666)" fill-rule="evenodd" filter="url(#a)"></path>
  </symbol>
  <symbol xmlns="http://www.w3.org/2000/svg" viewBox="0 0 22 22" id="icon-support-free">
    <defs>
      <filter id="a" x="1246" y="1698" width="22" height="22" filterUnits="userSpaceOnUse">
        <feFlood result="flood" flood-color="#612acf"></feFlood>
        <feComposite result="composite" operator="in" in2="SourceGraphic"></feComposite>
        <feBlend result="blend" in2="SourceGraphic"></feBlend>
      </filter>
    </defs>
    <path d="M1257 1698a11 11 0 1011 11 11.013 11.013 0 00-11-11zm7.52 5.15l-3.19 3.19a5.1 5.1 0 00-1.53-1.57l3.19-3.18a9.04 9.04 0 011.53 1.56zm-7.52 9.47a3.62 3.62 0 113.62-3.62 3.619 3.619 0 01-3.62 3.62zm4.76-11.88l-3.37 3.37a5.243 5.243 0 00-1.39-.2 5.319 5.319 0 00-1.49.22l-3.35-3.35a9.512 9.512 0 019.6-.04zm-10.82.89l3.18 3.19a4.925 4.925 0 00-1.5 1.61l-3.19-3.21a9.479 9.479 0 011.51-1.59zm-2.33 2.85l3.43 3.42a5.011 5.011 0 00-.12 1.1 5.243 5.243 0 00.19 1.39l-3.37 3.36a9.456 9.456 0 01-.13-9.27zm.98 10.51l3.17-3.19a5.324 5.324 0 001.57 1.53l-3.18 3.19a9.04 9.04 0 01-1.56-1.53zm2.8 2.36l3.39-3.39a.034.034 0 01.03-.02 4.806 4.806 0 001.2.14 4.945 4.945 0 001.1-.12l3.43 3.43a9.6 9.6 0 01-9.15-.04zm10.39-.78l-3.21-3.2a5.249 5.249 0 001.61-1.5l3.18 3.18a9.092 9.092 0 01-1.58 1.52zm2.44-2.73l-3.35-3.35a5.26 5.26 0 00.21-1.49 4.7 4.7 0 00-.14-1.2l3.41-3.41a9.476 9.476 0 011.2 4.61 9.6 9.6 0 01-1.33 4.84z" transform="translate(-1246 -1698)" fill-rule="evenodd" filter="url(#a)"></path>
  </symbol>
  <symbol xmlns="http://www.w3.org/2000/svg" viewBox="0 0 36 38" id="icon-time-24">
    <defs>
      <filter id="a" x="1384" y="914" width="36" height="38" filterUnits="userSpaceOnUse">
        <feFlood result="flood" flood-color="#431d91"></feFlood>
        <feComposite result="composite" operator="in" in2="SourceGraphic"></feComposite>
        <feBlend result="blend" in2="SourceGraphic"></feBlend>
      </filter>
    </defs>
    <path d="M1395.93 935.9l-.97.929a.715.715 0 00-.21.5v.4a.7.7 0 00.7.7h5.76a.7.7 0 00.7-.7v-.513a.7.7 0 00-.7-.7h-3.18l.09-.08c2.08-1.987 3.55-3.551 3.55-5.587a3.185 3.185 0 00-3.45-3.271 4.843 4.843 0 00-2.87.932.681.681 0 00-.22.845l.17.388a.724.724 0 00.46.385.71.71 0 00.59-.1 2.765 2.765 0 011.59-.544 1.377 1.377 0 011.58 1.526c-.02 1.367-1.16 2.595-3.59 4.89zm10.49-8.154h-.27a.692.692 0 00-.57.3l-4.3 6.1a.642.642 0 00-.13.4v.489a.7.7 0 00.7.7h3.93v2a.7.7 0 00.7.7h.67a.7.7 0 00.7-.7v-2h.7a.7.7 0 00.7-.7v-.452a.7.7 0 00-.7-.7h-.7v-5.443a.7.7 0 00-.7-.7h-.67zm-.64 6.139h-2.12c.54-.775 1.46-2.107 2.12-3.091v3.091zm-3.75 15.1a14.86 14.86 0 01-1.31-29.673v2.37a.461.461 0 00.25.4.454.454 0 00.21.053.483.483 0 00.26-.077l5.42-3.615a.445.445 0 000-.756l-5.42-3.615a.465.465 0 00-.72.378v1.838a17.881 17.881 0 1013.64 30.865l-2.08-2.2a14.979 14.979 0 01-10.25 4.034zm15.38-24.182a17.9 17.9 0 00-2.15-2.826l-2.23 2.047a14.768 14.768 0 011.79 2.351zm-.53 7.3l3.01-.406a17.73 17.73 0 00-.83-3.449l-2.87.989a15.55 15.55 0 01.69 2.863zm-4.51-12.628a18.185 18.185 0 00-3.12-1.738l-1.22 2.759a14.841 14.841 0 012.59 1.445zm1.24 24.086l2.34 1.914a17.842 17.842 0 001.99-2.947l-2.68-1.418a15.287 15.287 0 01-1.65 2.452zm3.36-8.29a14.256 14.256 0 01-.52 2.9l2.92.819a17.219 17.219 0 00.63-3.493z" transform="translate(-1384 -914)" fill-rule="evenodd" filter="url(#a)"></path>
  </symbol>
  <symbol xmlns="http://www.w3.org/2000/svg" viewBox="0 0 36 34" id="icon-time-clock">
    <defs>
      <filter id="a" x="793" y="917" width="36" height="34" filterUnits="userSpaceOnUse">
        <feFlood result="flood" flood-color="#431d91"></feFlood>
        <feComposite result="composite" operator="in" in2="SourceGraphic"></feComposite>
        <feBlend result="blend" in2="SourceGraphic"></feBlend>
      </filter>
    </defs>
    <path d="M811.9 925.947h-2.7v9.126l8.46 5.01 1.44-2.326-7.2-4.294v-7.516m0-8.948a16.825 16.825 0 00-14.76 8.59l-4.14-4.116v11.632h11.7l-5.04-5.011a13.715 13.715 0 0112.24-7.515 13.422 13.422 0 11-12.78 17.894h-3.78A17.113 17.113 0 10811.9 917" transform="translate(-793 -917)" fill-rule="evenodd" filter="url(#a)"></path>
  </symbol>
  <symbol xmlns="http://www.w3.org/2000/svg" viewBox="0 0 20 18" id="icon-website">
    <defs>
      <filter id="a" x="705" y="4379" width="20" height="18" filterUnits="userSpaceOnUse">
        <feFlood result="flood" flood-color="#fff"></feFlood>
        <feComposite result="composite" operator="in" in2="SourceGraphic"></feComposite>
        <feBlend result="blend" in2="SourceGraphic"></feBlend>
      </filter>
    </defs>
    <path d="M711.889 4385.6h-.037a.316.316 0 00-.3.22l-.573 1.73-.576-1.73a.314.314 0 00-.3-.22h-.052a.316.316 0 00-.3.22l-.573 1.73-.576-1.73a.313.313 0 00-.3-.22h-.037a.317.317 0 00-.254.13.333.333 0 00-.042.29l.885 2.6a.306.306 0 00.295.21h.046a.3.3 0 00.295-.21l.58-1.72.577 1.72a.306.306 0 00.3.21h.046a.306.306 0 00.295-.21l.884-2.6a.33.33 0 00-.041-.29.317.317 0 00-.242-.13zm4.327 0h-.037a.315.315 0 00-.3.22l-.573 1.73-.576-1.73a.315.315 0 00-.3-.22h-.053a.315.315 0 00-.3.22l-.573 1.73-.576-1.73a.314.314 0 00-.3-.22h-.036a.317.317 0 00-.254.13.33.33 0 00-.042.29l.885 2.6a.305.305 0 00.295.21h.045a.306.306 0 00.3-.21l.58-1.72.577 1.72a.306.306 0 00.3.21h.045a.306.306 0 00.3-.21l.884-2.6a.327.327 0 00-.042-.29.315.315 0 00-.249-.13zm4.327 0h-.037a.314.314 0 00-.3.22l-.573 1.73-.576-1.73a.316.316 0 00-.3-.22h-.053a.314.314 0 00-.3.22l-.573 1.73-.576-1.73a.316.316 0 00-.3-.22h-.037a.315.315 0 00-.253.13.33.33 0 00-.042.29l.884 2.6a.306.306 0 00.3.21h.045a.306.306 0 00.3-.21l.58-1.72.577 1.72a.306.306 0 00.3.21h.045a.3.3 0 00.295-.21l.885-2.6a.33.33 0 00-.042-.29.315.315 0 00-.249-.13zm-14.185 9.13v-11.69h16.107v6.69a1.759 1.759 0 011.161-.43c.066 0 .132.01.2.01v-9.18a1.134 1.134 0 00-1.131-1.13h-16.56a1.134 1.134 0 00-1.131 1.13v14.83a1.134 1.134 0 001.131 1.13h10.791a4.013 4.013 0 01-.549-1.36h-10.019zm14.865-13.83a.42.42 0 01.418-.42h.417a.42.42 0 01.418.42v.47a.42.42 0 01-.418.42h-.417a.42.42 0 01-.418-.42v-.47zm-1.942 0a.42.42 0 01.418-.42h.417a.42.42 0 01.418.42v.47a.42.42 0 01-.418.42h-.416a.42.42 0 01-.418-.42v-.47zm-1.942 0a.42.42 0 01.418-.42h.417a.42.42 0 01.418.42v.47a.42.42 0 01-.418.42h-.417a.42.42 0 01-.418-.42v-.47zm7.66 10.8a.823.823 0 00-.241-.58l-.617-.62a.827.827 0 00-1.165 0l-.94.94a3.067 3.067 0 101.281 2.5c0-.07 0-.14-.007-.21l1.448-1.45a.805.805 0 00.242-.58zm-.91.19l-2.948 2.94a.345.345 0 01-.235.1.342.342 0 01-.234-.1l-1.366-1.37a.322.322 0 010-.46l.263-.27a.33.33 0 01.468 0l.869.87 2.449-2.45a.324.324 0 01.468 0l.266.27a.334.334 0 010 .47z" transform="translate(-705 -4379)" fill-rule="evenodd" filter="url(#a)"></path>
  </symbol>
</svg>