<svg xmlns="http://www.w3.org/2000/svg" xmlns:xlink="http://www.w3.org/1999/xlink"  viewBox="0 0 29 29">
  
  <path id="icon" class="cls-1" d="M1071.99,783.885a1.43,1.43,0,0,1-.43,1.229l-4.09,4.054a2.219,2.219,0,0,1-.72.523,2.962,2.962,0,0,1-.87.276c-0.02,0-.09,0-0.19.016s-0.23.015-.4,0.015a14.084,14.084,0,0,1-1.88-.2,14.393,14.393,0,0,1-3.2-.983,26.821,26.821,0,0,1-4.28-2.35,31.7,31.7,0,0,1-5.1-4.3,33.746,33.746,0,0,1-3.56-4.054,28.632,28.632,0,0,1-2.27-3.579,19.911,19.911,0,0,1-1.29-2.979,15.051,15.051,0,0,1-.58-2.3,7.2,7.2,0,0,1-.13-1.52q0.03-.553.03-0.615a3.428,3.428,0,0,1,.28-0.875,2.328,2.328,0,0,1,.52-0.722l4.09-4.085a1.332,1.332,0,0,1,.98-0.43,1.134,1.134,0,0,1,.7.23,2.185,2.185,0,0,1,.53.569l3.28,6.235a1.478,1.478,0,0,1,.16,1.075,1.958,1.958,0,0,1-.53.983l-1.5,1.5a0.518,0.518,0,0,0-.11.2,0.744,0.744,0,0,0-.04.23,5.341,5.341,0,0,0,.55,1.474,12.951,12.951,0,0,0,1.13,1.8,29.023,29.023,0,0,0,4.64,4.638,14.444,14.444,0,0,0,1.8,1.152,4.885,4.885,0,0,0,1.1.446l0.39,0.076a0.666,0.666,0,0,0,.19-0.046,0.448,0.448,0,0,0,.2-0.107l1.75-1.782a1.889,1.889,0,0,1,1.29-.491,1.591,1.591,0,0,1,.83.184h0.03l5.93,3.5A1.574,1.574,0,0,1,1071.99,783.885Z" transform="translate(-1043 -761)"/>
</svg>
