<svg xmlns="http://www.w3.org/2000/svg" xmlns:xlink="http://www.w3.org/1999/xlink" width="24" height="22" viewBox="0 0 24 22">
  <defs>
    <style>
      .cls-1 {
        fill-rule: evenodd;
        filter: url(#filter);
      }
    </style>
    <filter id="filter" x="880" y="1246" width="24" height="22" filterUnits="userSpaceOnUse">
      <feFlood result="flood" flood-color="#8245ff"/>
      <feComposite result="composite" operator="in" in2="SourceGraphic"/>
      <feBlend result="blend" in2="SourceGraphic"/>
    </filter>
  </defs>
  <path id="icon" class="cls-1" d="M888.019,1264.2h-4.464a1.516,1.516,0,0,1-1.559-1.47v-13.35a1.508,1.508,0,0,1,1.559-1.46h10.8a1.5,1.5,0,0,1,1.548,1.46v11.19l2-2.29v-10.32A1.972,1.972,0,0,0,895.9,1246H881.938a1.9,1.9,0,0,0-1.937,1.88v16.33a1.988,1.988,0,0,0,2.02,1.96h7.838l-0.926-.78A3.333,3.333,0,0,1,888.019,1264.2Zm5.509-13.81h-8.961a0.961,0.961,0,1,0,0,1.92h8.96A0.961,0.961,0,1,0,893.528,1250.39Zm0,3.2h-8.961a0.965,0.965,0,1,0,0,1.93h8.96A0.965,0.965,0,1,0,893.528,1253.59Zm0,3.21h-8.961a0.937,0.937,0,1,0,0,1.87h8.96A0.937,0.937,0,1,0,893.528,1256.8Zm-9.956,3.99a0.961,0.961,0,0,0,1,.94h3.343a3.9,3.9,0,0,1,.648-1.08,3.449,3.449,0,0,1,1.069-.79h-5.06A0.959,0.959,0,0,0,883.572,1260.79Zm9.956-.93H892.78a2.684,2.684,0,0,1,.693.44l0.993,0.82a0.868,0.868,0,0,0,.058-0.32A0.971,0.971,0,0,0,893.528,1259.86Zm9.856-2.57a1.777,1.777,0,0,0-2.457.19l-5.724,6.47-2.862-2.37a1.777,1.777,0,0,0-2.458.18,1.64,1.64,0,0,0,.188,2.37l4.187,3.46a1.748,1.748,0,0,0,1.135.41h0.138a1.8,1.8,0,0,0,1.19-.59l6.86-7.75A1.641,1.641,0,0,0,903.384,1257.29Z" transform="translate(-880 -1246)"/>
</svg>
