<svg xmlns="http://www.w3.org/2000/svg" xmlns:xlink="http://www.w3.org/1999/xlink" width="31" height="18" viewBox="0 0 31 18">
  <defs>
    <style>
      .cls-1 {
        fill-rule: evenodd;
        filter: url(#filter);
      }
    </style>
    <filter id="filter" x="1452" y="1251" width="31" height="18" filterUnits="userSpaceOnUse">
      <feFlood result="flood" flood-color="#8245ff"/>
      <feComposite result="composite" operator="in" in2="SourceGraphic"/>
      <feBlend result="blend" in2="SourceGraphic"/>
    </filter>
  </defs>
  <path id="icon" class="cls-1" d="M1481.24,1257.43a37.673,37.673,0,0,0-5.18-4.01,4.389,4.389,0,0,0-.96-0.17,5.276,5.276,0,0,0-4.26,1.53c-0.09.1-.15,0.16-0.15,0.16l0.11-.19a4.977,4.977,0,0,1,1.31-1.43,5.951,5.951,0,0,1,.75-0.48,4.029,4.029,0,0,1,.77-0.36l-0.36-.38a2.928,2.928,0,0,0-2.06-1.1,2.526,2.526,0,0,0-2.34,1.61,2.6,2.6,0,0,0-2.74,0,2.526,2.526,0,0,0-2.34-1.61,2.928,2.928,0,0,0-2.06,1.1l-0.36.38a4.029,4.029,0,0,1,.77.36,5.951,5.951,0,0,1,.75.48,4.977,4.977,0,0,1,1.31,1.43l0.11,0.19s-0.06-.06-0.15-0.16a5.276,5.276,0,0,0-4.26-1.53,4.389,4.389,0,0,0-.96.17,37.673,37.673,0,0,0-5.18,4.01,6.967,6.967,0,0,0-1.76,4.64,6.817,6.817,0,0,0,13.58.96,3.2,3.2,0,0,0,1.92.63,3.15,3.15,0,0,0,1.91-.63,6.822,6.822,0,0,0,13.59-.96A6.967,6.967,0,0,0,1481.24,1257.43Zm-22.57,8.99a4.18,4.18,0,1,1,4.12-4.18A4.144,4.144,0,0,1,1458.67,1266.42Zm8.83-4.57a1.1,1.1,0,1,1,1.09-1.1A1.095,1.095,0,0,1,1467.5,1261.85Zm8.83,4.57a4.181,4.181,0,1,1,4.11-4.18A4.146,4.146,0,0,1,1476.33,1266.42Z" transform="translate(-1452 -1251)"/>
</svg>
