<svg xmlns="http://www.w3.org/2000/svg" xmlns:xlink="http://www.w3.org/1999/xlink" width="25" height="22" viewBox="0 0 25 22">
  <defs>
    <style>
      .cls-1 {
        fill-rule: evenodd;
        filter: url(#filter);
      }
    </style>
    <filter id="filter" x="876" y="1474" width="25" height="22" filterUnits="userSpaceOnUse">
      <feFlood result="flood" flood-color="#8245ff"/>
      <feComposite result="composite" operator="in" in2="SourceGraphic"/>
      <feBlend result="blend" in2="SourceGraphic"/>
    </filter>
  </defs>
  <path id="icon" class="cls-1" d="M876,1492.6a0.921,0.921,0,0,0,.691.85l9.421,2.46a2.634,2.634,0,0,0,.682.09,2.851,2.851,0,0,0,.868-0.14l12.71-4.32a0.912,0.912,0,0,0-.1-1.76l-1.623-.36-10.44,3.54a4.278,4.278,0,0,1-1.417.24,4.666,4.666,0,0,1-1.115-.14l-7.421-1.94-1.644.58A0.918,0.918,0,0,0,876,1492.6Zm0-4.46a0.932,0.932,0,0,0,.691.85l9.421,2.46a2.634,2.634,0,0,0,.682.09,2.586,2.586,0,0,0,.868-0.15l12.71-4.31a0.912,0.912,0,0,0-.1-1.76l-1.623-.36-10.44,3.54a4.268,4.268,0,0,1-1.417.23,4.209,4.209,0,0,1-1.115-.14l-7.421-1.94-1.644.58A0.93,0.93,0,0,0,876,1488.14Zm12.211-4.1a4.541,4.541,0,0,1-1.417.23,4.666,4.666,0,0,1-1.115-.14l-7.421-1.94-1.644.58a0.914,0.914,0,0,0,.077,1.75l9.421,2.46a2.634,2.634,0,0,0,.682.09,2.851,2.851,0,0,0,.868-0.14l12.71-4.32a0.9,0.9,0,0,0,.627-0.91,0.928,0.928,0,0,0-.725-0.85l-1.623-.36Zm-11.52-3.98,9.421,2.46a2.634,2.634,0,0,0,.682.09,2.586,2.586,0,0,0,.868-0.15l12.71-4.31a0.912,0.912,0,0,0-.1-1.76l-10.5-2.33a2.863,2.863,0,0,0-.583-0.06,2.549,2.549,0,0,0-.9.16l-11.676,4.15a0.909,0.909,0,0,0-.614.9A0.93,0.93,0,0,0,876.691,1480.06Z" transform="translate(-876 -1474)"/>
</svg>
