<svg 
 xmlns="http://www.w3.org/2000/svg"
 xmlns:xlink="http://www.w3.org/1999/xlink"
 width="21px" height="23px">
<defs>
<filter id="Filter_0">
    <feFlood flood-color="rgb(97, 42, 207)" flood-opacity="1" result="floodOut" />
    <feComposite operator="atop" in="floodOut" in2="SourceGraphic" result="compOut" />
    <feBlend mode="normal" in="compOut" in2="SourceGraphic" />
</filter>

</defs>
<g filter="url(#Filter_0)">
<path fill-rule="evenodd"  fill="rgb(0, 0, 0)"
 d="M20.867,13.070 C20.776,12.821 20.638,12.599 20.466,12.400 C20.166,11.190 19.571,9.804 18.706,8.429 C17.321,6.226 13.654,2.673 12.262,2.125 C12.192,2.097 12.130,2.082 12.071,2.068 C12.024,1.725 11.830,1.407 11.369,1.190 C9.748,0.430 8.163,-0.316 7.062,0.137 C5.960,0.590 5.344,1.291 6.533,3.955 C7.664,4.777 9.902,3.119 10.618,4.180 C11.333,5.241 12.122,8.772 13.434,11.029 C13.103,10.984 12.761,10.960 12.409,10.960 C10.896,10.960 9.536,11.402 8.576,12.108 C7.754,10.830 6.319,9.981 4.682,9.981 C2.514,9.981 0.702,11.469 0.199,13.474 L0.001,13.476 L0.116,23.000 L2.479,22.961 L3.336,21.446 C4.827,20.876 6.588,19.406 7.813,17.839 C9.471,18.081 11.566,18.219 12.409,18.219 C13.322,18.219 16.774,17.819 17.761,17.459 C20.059,16.620 21.451,14.655 20.867,13.070 Z"/>
</g>
</svg>