<svg xmlns="http://www.w3.org/2000/svg" xmlns:xlink="http://www.w3.org/1999/xlink" width="36" height="38" viewBox="0 0 36 38">
  <defs>
    <style>
      .cls-1 {
        fill-rule: evenodd;
        filter: url(#filter);
      }
    </style>
    <filter id="filter" x="1384" y="914" width="36" height="38" filterUnits="userSpaceOnUse">
      <feFlood result="flood" flood-color="#431d91"/>
      <feComposite result="composite" operator="in" in2="SourceGraphic"/>
      <feBlend result="blend" in2="SourceGraphic"/>
    </filter>
  </defs>
  <path id="icon" class="cls-1" d="M1395.93,935.9l-0.97.929a0.715,0.715,0,0,0-.21.5v0.4a0.7,0.7,0,0,0,.7.7h5.76a0.7,0.7,0,0,0,.7-0.7v-0.513a0.7,0.7,0,0,0-.7-0.7h-3.18l0.09-.08c2.08-1.987,3.55-3.551,3.55-5.587a3.185,3.185,0,0,0-3.45-3.271,4.843,4.843,0,0,0-2.87.932,0.681,0.681,0,0,0-.22.845l0.17,0.388a0.724,0.724,0,0,0,.46.385,0.71,0.71,0,0,0,.59-0.1,2.765,2.765,0,0,1,1.59-.544,1.377,1.377,0,0,1,1.58,1.526C1399.5,932.377,1398.36,933.605,1395.93,935.9Zm10.49-8.154-0.05,0h-0.22a0.692,0.692,0,0,0-.57.3l-4.3,6.1a0.642,0.642,0,0,0-.13.4v0.489a0.7,0.7,0,0,0,.7.7h3.93v2a0.7,0.7,0,0,0,.7.7h0.67a0.7,0.7,0,0,0,.7-0.7v-2h0.7a0.7,0.7,0,0,0,.7-0.7v-0.452a0.7,0.7,0,0,0-.7-0.7h-0.7V928.44a0.7,0.7,0,0,0-.7-0.7h-0.67Zm-0.64,6.139h-2.12c0.54-.775,1.46-2.107,2.12-3.091v3.091Zm-3.75,15.1a14.86,14.86,0,0,1-1.31-29.673v2.37a0.461,0.461,0,0,0,.25.4,0.454,0.454,0,0,0,.21.053,0.483,0.483,0,0,0,.26-0.077l5.42-3.615a0.445,0.445,0,0,0,0-.756l-5.42-3.615a0.465,0.465,0,0,0-.72.378v1.838a17.881,17.881,0,1,0,13.64,30.865l-2.08-2.2A14.979,14.979,0,0,1,1402.03,948.987Zm15.38-24.182a17.9,17.9,0,0,0-2.15-2.826l-2.23,2.047a14.768,14.768,0,0,1,1.79,2.351Zm-0.53,7.3,3.01-.406a17.73,17.73,0,0,0-.83-3.449l-2.87.989A15.55,15.55,0,0,1,1416.88,932.1Zm-4.51-12.628a18.185,18.185,0,0,0-3.12-1.738l-1.22,2.759a14.841,14.841,0,0,1,2.59,1.445Zm1.24,24.086,2.34,1.914a17.842,17.842,0,0,0,1.99-2.947l-2.68-1.418A15.287,15.287,0,0,1,1413.61,943.562Zm3.36-8.29a14.256,14.256,0,0,1-.52,2.9l2.92,0.819a17.219,17.219,0,0,0,.63-3.493Z" transform="translate(-1384 -914)"/>
</svg>
