<svg xmlns="http://www.w3.org/2000/svg" xmlns:xlink="http://www.w3.org/1999/xlink" width="22" height="22" viewBox="0 0 22 22">
  <defs>
    <style>
      .cls-1 {
        fill-rule: evenodd;
        filter: url(#filter);
      }
    </style>
    <filter id="filter" x="1246" y="1698" width="22" height="22" filterUnits="userSpaceOnUse">
      <feFlood result="flood" flood-color="#612acf"/>
      <feComposite result="composite" operator="in" in2="SourceGraphic"/>
      <feBlend result="blend" in2="SourceGraphic"/>
    </filter>
  </defs>
  <path id="icon" class="cls-1" d="M1257,1698a11,11,0,1,0,11,11A11.013,11.013,0,0,0,1257,1698Zm7.52,5.15-3.19,3.19a5.1,5.1,0,0,0-1.53-1.57l3.19-3.18A9.04,9.04,0,0,1,1264.52,1703.15Zm-7.52,9.47a3.62,3.62,0,1,1,3.62-3.62A3.619,3.619,0,0,1,1257,1712.62Zm4.76-11.88-3.37,3.37a5.243,5.243,0,0,0-1.39-.2,5.319,5.319,0,0,0-1.49.22l-3.35-3.35A9.512,9.512,0,0,1,1261.76,1700.74Zm-10.82.89,3.18,3.19a4.925,4.925,0,0,0-1.5,1.61l-3.19-3.21A9.479,9.479,0,0,1,1250.94,1701.63Zm-2.33,2.85,3.43,3.42a5.011,5.011,0,0,0-.12,1.1,5.243,5.243,0,0,0,.19,1.39l-3.37,3.36A9.456,9.456,0,0,1,1248.61,1704.48Zm0.98,10.51,3.17-3.19a5.324,5.324,0,0,0,1.57,1.53l-3.18,3.19A9.04,9.04,0,0,1,1249.59,1714.99Zm2.8,2.36,3.39-3.39a0.034,0.034,0,0,1,.03-0.02,4.806,4.806,0,0,0,1.2.14,4.945,4.945,0,0,0,1.1-.12h0l3.43,3.43A9.6,9.6,0,0,1,1252.39,1717.35Zm10.39-.78-3.21-3.2a5.249,5.249,0,0,0,1.61-1.5l3.18,3.18A9.092,9.092,0,0,1,1262.78,1716.57Zm2.44-2.73-3.35-3.35a5.26,5.26,0,0,0,.21-1.49,4.7,4.7,0,0,0-.14-1.2l3.41-3.41a9.476,9.476,0,0,1,1.2,4.61A9.6,9.6,0,0,1,1265.22,1713.84Z" transform="translate(-1246 -1698)"/>
</svg>
