<svg xmlns="http://www.w3.org/2000/svg" xmlns:xlink="http://www.w3.org/1999/xlink" width="19" height="19" viewBox="0 0 19 19">
  <defs>
    <style>
      .cls-1 {
        fill-rule: evenodd;
        filter: url(#filter);
      }
    </style>
    <filter id="filter" x="653" y="1701" width="19" height="19" filterUnits="userSpaceOnUse">
      <feFlood result="flood" flood-color="#612acf"/>
      <feComposite result="composite" operator="in" in2="SourceGraphic"/>
      <feBlend result="blend" in2="SourceGraphic"/>
    </filter>
  </defs>
  <path id="icon" class="cls-1" d="M661.183,1714.41h-6.63a0.294,0.294,0,0,1-.279-0.3v-11.46a0.294,0.294,0,0,1,.279-0.3h15.893a0.3,0.3,0,0,1,.28.3v2.51a2.739,2.739,0,0,1,1.272.49v-3a1.605,1.605,0,0,0-1.552-1.65H654.553a1.605,1.605,0,0,0-1.552,1.65v11.46a1.605,1.605,0,0,0,1.552,1.65h5.327v2.21h-0.84a1.017,1.017,0,0,0,0,2.03h2.679a3.182,3.182,0,0,1-.536-1.77v-3.82h0Zm5.341,4.57v-1.46h-2.8v-9.34a0.345,0.345,0,0,1,.335-0.35h6.327a0.346,0.346,0,0,1,.336.35v2.89H671.2a1.469,1.469,0,0,1,.8.24v-3.13a1.656,1.656,0,0,0-1.608-1.7h-6.327a1.657,1.657,0,0,0-1.608,1.7v10.05a1.666,1.666,0,0,0,1.608,1.71h2.748A1.873,1.873,0,0,1,666.524,1718.98Zm4.678-7.06h-3.086a0.822,0.822,0,0,0-.8.84v6.22a0.822,0.822,0,0,0,.8.84H671.2a0.823,0.823,0,0,0,.8-0.84v-6.22A0.823,0.823,0,0,0,671.2,1711.92Zm-2.928,1.01h2.77v5.37h-2.77v-5.37Zm1.385,6.48a0.355,0.355,0,0,1-.225-0.09,0.379,0.379,0,0,1-.112-0.27,0.337,0.337,0,1,1,.673,0,0.382,0.382,0,0,1-.111.27A0.355,0.355,0,0,1,669.659,1719.41Z" transform="translate(-653 -1701)"/>
</svg>
