<svg xmlns="http://www.w3.org/2000/svg" xmlns:xlink="http://www.w3.org/1999/xlink" width="17.97" height="19" viewBox="0 0 17.97 19">
  <defs>
    <style>
      .cls-1 {
        fill-rule: evenodd;
        filter: url(#filter);
      }
    </style>
    <filter id="filter" x="1248" y="1509" width="17.97" height="19" filterUnits="userSpaceOnUse">
      <feFlood result="flood" flood-color="#612acf"/>
      <feComposite result="composite" operator="in" in2="SourceGraphic"/>
      <feBlend result="blend" in2="SourceGraphic"/>
    </filter>
  </defs>
  <path id="icon" class="cls-1" d="M1255.18,1510.05l-3.91-1.05-0.42.42,2.08,2.08-2.03,2.04-2.08-2.09-0.42.42,1.05,3.92,3.73,0.01-0.03.03,10.46,10.51,0.01-.01a1.385,1.385,0,0,0,1.95-.01,1.407,1.407,0,0,0,.02-1.96l0.01-.01-10.41-10.46Zm9.88,15.75a0.619,0.619,0,0,1-.88,0,0.619,0.619,0,1,1,.88-0.87,0.616,0.616,0,0,1,0,.87h0Zm-9.68-3.35,0.34,0.34,1.1-1.1-0.71-.71,5.98-6,2.61-1.68,1.03-1.86-1.2-1.21-1.86,1.04-1.68,2.61-5.98,5.99-0.72-.71-1.1,1.1,0.34,0.34a13.259,13.259,0,0,0-4.09,4.11l-0.34-.34-1.1,1.1,2.53,2.53,1.1-1.11-0.35-.34a13.048,13.048,0,0,0,4.1-4.1h0Z" transform="translate(-1248 -1509)"/>
</svg>
