<?xml version="1.0" standalone="no"?>
<!DOCTYPE svg PUBLIC "-//W3C//DTD SVG 20010904//EN"
 "http://www.w3.org/TR/2001/REC-SVG-20010904/DTD/svg10.dtd">
<svg version="1.0" xmlns="http://www.w3.org/2000/svg"
 width="184.000000pt" height="36.000000pt" viewBox="0 0 184.000000 36.000000"
 preserveAspectRatio="xMidYMid meet">

<g transform="translate(0.000000,36.000000) scale(0.100000,-0.100000)"
fill="#000000" stroke="none">
<path d="M10 355 c0 -4 16 -33 35 -65 27 -44 35 -69 35 -104 0 -34 4 -46 15
-46 11 0 15 12 15 46 0 36 8 60 36 106 20 32 33 62 30 65 -9 9 -25 -9 -56 -62
l-26 -45 -30 52 c-25 45 -54 73 -54 53z"/>
<path d="M254 351 c-67 -29 -84 -118 -35 -173 25 -28 36 -33 75 -33 66 0 101
37 101 105 0 40 -5 55 -26 75 -27 28 -82 40 -115 26z m91 -36 c52 -51 18 -155
-50 -155 -14 0 -37 11 -50 25 -52 51 -18 155 50 155 14 0 37 -11 50 -25z"/>
<path d="M440 285 c0 -84 12 -118 47 -134 30 -14 46 -14 76 0 35 16 47 50 47
134 0 60 -3 75 -15 75 -12 0 -15 -16 -15 -83 0 -90 -13 -117 -57 -117 -39 0
-53 30 -53 118 0 66 -3 82 -15 82 -12 0 -15 -15 -15 -75z"/>
<path d="M672 245 l2 -110 5 93 6 93 63 -85 c35 -47 68 -88 73 -92 5 -3 8 40
7 103 l-2 108 -5 -95 -6 -95 -63 85 c-35 47 -68 89 -73 95 -5 5 -8 -34 -7
-100z"/>
<path d="M904 245 c0 -60 1 -84 3 -52 2 32 2 81 0 110 -2 29 -3 3 -3 -58z"/>
<path d="M994 252 c22 -53 46 -99 51 -101 10 -3 97 190 89 198 -6 6 -7 4 -49
-97 l-39 -94 -39 96 c-22 53 -43 96 -47 96 -5 0 11 -44 34 -98z"/>
<path d="M1180 245 l0 -105 63 2 62 2 -57 3 -58 4 0 44 0 44 48 4 47 3 -47 2
-48 2 0 45 0 44 58 4 57 3 -62 2 -63 2 0 -105z"/>
<path d="M1362 243 c1 -60 3 -84 5 -55 5 70 29 70 80 2 20 -27 41 -50 46 -50
4 0 -9 21 -30 47 -25 30 -34 48 -25 51 41 13 56 69 25 93 -15 11 -16 11 -5 -1
31 -35 1 -80 -54 -80 -34 0 -34 1 -34 44 0 44 0 45 38 49 l37 4 -42 1 -43 2 2
-107z"/>
<path d="M1550 330 c-36 -36 -25 -60 43 -89 51 -22 61 -46 30 -76 -16 -16 -43
-17 -88 -1 -13 5 -11 2 5 -8 51 -31 110 -8 110 43 0 32 -11 44 -54 58 -66 21
-59 79 9 77 24 -1 32 2 24 7 -24 15 -58 10 -79 -11z"/>
<path d="M1700 245 l0 -105 68 2 67 2 -57 3 -58 4 0 44 0 44 48 4 47 3 -47 2
-48 2 0 45 0 44 58 4 57 3 -67 2 -68 2 0 -105z"/>
<path d="M1090 35 c0 -30 3 -35 23 -34 16 1 18 2 5 6 -11 3 -18 14 -18 28 0
14 7 25 18 28 13 4 11 5 -5 6 -20 1 -23 -4 -23 -34z"/>
<path d="M1211 33 c1 -21 3 -30 6 -20 2 9 10 17 16 17 7 0 6 4 -3 10 -13 9
-13 11 0 20 13 8 12 10 -2 10 -14 0 -18 -8 -17 -37z"/>
<path d="M1486 53 c-6 -14 -5 -15 5 -6 7 7 10 15 7 18 -3 3 -9 -2 -12 -12z"/>
<path d="M1560 35 c0 -30 3 -35 23 -34 16 1 18 2 5 6 -10 2 -18 8 -18 13 0 5
8 11 18 13 16 4 16 5 0 6 -10 0 -18 5 -18 10 0 5 8 12 18 14 13 4 11 5 -5 6
-20 1 -23 -4 -23 -34z"/>
<path d="M1660 35 c0 -30 3 -35 23 -34 16 1 18 2 5 6 -11 3 -18 14 -18 28 0
14 7 25 18 28 13 4 11 5 -5 6 -20 1 -23 -4 -23 -34z"/>
<path d="M1711 34 c0 -11 3 -14 6 -6 3 7 2 16 -1 19 -3 4 -6 -2 -5 -13z"/>
<path d="M1776 24 c-3 -7 5 -9 20 -6 13 2 24 7 24 11 0 11 -39 7 -44 -5z"/>
<path d="M878 23 c6 -2 18 -2 25 0 6 3 1 5 -13 5 -14 0 -19 -2 -12 -5z"/>
</g>
</svg>
