<svg xmlns="http://www.w3.org/2000/svg" xmlns:xlink="http://www.w3.org/1999/xlink" width="25" height="26" viewBox="0 0 25 26">
  <defs>
    <style>
      .cls-1 {
        fill-rule: evenodd;
        filter: url(#filter);
      }
    </style>
    <filter id="filter" x="1748" y="1243" width="25" height="26" filterUnits="userSpaceOnUse">
      <feFlood result="flood" flood-color="#8245ff"/>
      <feComposite result="composite" operator="in" in2="SourceGraphic"/>
      <feBlend result="blend" in2="SourceGraphic"/>
    </filter>
  </defs>
  <path id="icon" class="cls-1" d="M1770.05,1250.82a12.023,12.023,0,0,0-3.4-2.13,4.426,4.426,0,0,1-.55.68,4.535,4.535,0,0,1-.93.7,8.612,8.612,0,0,1,1.04.4,0.643,0.643,0,0,1,.28.89h0a0.643,0.643,0,0,1-.82.25,10.808,10.808,0,0,0-5.89-.69,0.645,0.645,0,0,1-.72-0.47v-0.01a0.64,0.64,0,0,1,.53-0.77c0.2-.03.44-0.06,0.71-0.08-0.08-.07-0.16-0.15-0.23-0.22a4.153,4.153,0,0,1-.92-1.35c-0.02-.05-0.04-0.1-0.06-0.16-0.34.06-.67,0.13-1,0.21a9.5,9.5,0,0,0-5.53-.96,0.837,0.837,0,0,0-.68,1.2l1.15,2.33a9.524,9.524,0,0,0-2.78,3.94l-1.4-.01a0.847,0.847,0,0,0-.85.84v3.11a0.834,0.834,0,0,0,.46.74l1.81,0.94a10,10,0,0,0,4.4,5.07v2.75a0.992,0.992,0,0,0,1,.98h2.54a1,1,0,0,0,.91-0.59l0.63-1.45a13.3,13.3,0,0,0,1.68.1,14.029,14.029,0,0,0,2.62-.24v1.2a0.984,0.984,0,0,0,.99.98h2.53a1.006,1.006,0,0,0,.88-0.52,85.677,85.677,0,0,0,3.89-7.64,8.875,8.875,0,0,0,.63-4.11A9.154,9.154,0,0,0,1770.05,1250.82Zm-15.21,5.22a1.26,1.26,0,1,1,1.27-1.26A1.266,1.266,0,0,1,1754.84,1256.04Zm6.99-6.51a3.428,3.428,0,0,0,1.25.23,3.387,3.387,0,0,0,.64-0.06,3.436,3.436,0,0,0,2.12-1.32,3.4,3.4,0,1,0-6.17-2,3.253,3.253,0,0,0,.29,1.36A3.387,3.387,0,0,0,1761.83,1249.53Z" transform="translate(-1748 -1243)"/>
</svg>
