<svg xmlns="http://www.w3.org/2000/svg" xmlns:xlink="http://www.w3.org/1999/xlink" width="22" height="25.03" viewBox="0 0 22 25.03">
  <defs>
    <style>
      .cls-1 {
        fill-rule: evenodd;
        filter: url(#filter);
      }
    </style>
    <filter id="filter" x="652" y="1886.97" width="22" height="25.03" filterUnits="userSpaceOnUse">
      <feFlood result="flood" flood-color="#612acf"/>
      <feComposite result="composite" operator="in" in2="SourceGraphic"/>
      <feBlend result="blend" in2="SourceGraphic"/>
    </filter>
  </defs>
  <path id="icon" class="cls-1" d="M661.034,1907.3l-0.5-.21a4.974,4.974,0,0,0-.042-1.26l0.484-.26a0.73,0.73,0,0,0,.295-0.91l-0.282-.7a0.573,0.573,0,0,0-.8-0.34l-0.485.26a3.765,3.765,0,0,0-.815-0.86l0.185-.57a0.726,0.726,0,0,0-.357-0.89l-0.634-.26a0.6,0.6,0,0,0-.775.4l-0.185.57a3.457,3.457,0,0,0-1.109.05l-0.223-.55a0.579,0.579,0,0,0-.8-0.34l-0.614.32a0.74,0.74,0,0,0-.3.92l0.223,0.55a4.1,4.1,0,0,0-.753.93l-0.5-.21a0.6,0.6,0,0,0-.776.41l-0.234.72a0.761,0.761,0,0,0,.018.52,0.626,0.626,0,0,0,.34.36l0.5,0.21a4.976,4.976,0,0,0,.042,1.27l-0.485.25a0.731,0.731,0,0,0-.295.91l0.283,0.7a0.572,0.572,0,0,0,.8.34l0.485-.25a3.977,3.977,0,0,0,.815.85l-0.185.57a0.778,0.778,0,0,0,.018.53,0.652,0.652,0,0,0,.339.36l0.634,0.26a0.5,0.5,0,0,0,.462-0.02,0.625,0.625,0,0,0,.313-0.38l0.186-.57a3.457,3.457,0,0,0,1.109-.05l0.222,0.55a0.58,0.58,0,0,0,.8.34l0.614-.32a0.739,0.739,0,0,0,.3-0.92l-0.223-.55a4.091,4.091,0,0,0,.752-0.93l0.5,0.21a0.505,0.505,0,0,0,.463-0.02,0.632,0.632,0,0,0,.313-0.38l0.234-.73A0.717,0.717,0,0,0,661.034,1907.3Zm-3.32,1.8a2.2,2.2,0,0,1-1,.25,2.393,2.393,0,0,1-2.17-1.59,2.9,2.9,0,0,1,1.17-3.61,2.2,2.2,0,0,1,1-.25,2.408,2.408,0,0,1,2.17,1.59A2.9,2.9,0,0,1,657.714,1909.1Zm9.291,0.17-0.279-.12a2.693,2.693,0,0,0-.023-0.7l0.269-.14a0.41,0.41,0,0,0,.165-0.51l-0.157-.39a0.322,0.322,0,0,0-.446-0.19l-0.27.14a2.686,2.686,0,0,0-.454-0.48l0.1-.31a0.413,0.413,0,0,0-.2-0.5l-0.353-.14a0.333,0.333,0,0,0-.432.22l-0.1.32a1.836,1.836,0,0,0-.617.03l-0.124-.31a0.322,0.322,0,0,0-.446-0.19l-0.342.18a0.412,0.412,0,0,0-.165.51l0.125,0.31a2.2,2.2,0,0,0-.42.52l-0.278-.12a0.332,0.332,0,0,0-.432.22l-0.131.41a0.426,0.426,0,0,0,.01.29,0.385,0.385,0,0,0,.189.2l0.279,0.12a2.694,2.694,0,0,0,.024.7l-0.27.14a0.412,0.412,0,0,0-.165.51l0.158,0.39a0.322,0.322,0,0,0,.446.19l0.27-.14a2.3,2.3,0,0,0,.454.47l-0.1.32a0.412,0.412,0,0,0,.01.29,0.319,0.319,0,0,0,.189.2l0.352,0.15a0.29,0.29,0,0,0,.257-0.01,0.363,0.363,0,0,0,.175-0.21l0.1-.32a2.146,2.146,0,0,0,.618-0.03l0.124,0.31a0.328,0.328,0,0,0,.445.19l0.342-.18a0.411,0.411,0,0,0,.165-0.51l-0.124-.31a2.2,2.2,0,0,0,.419-0.52l0.279,0.12a0.29,0.29,0,0,0,.257-0.01,0.358,0.358,0,0,0,.175-0.22l0.13-.4A0.4,0.4,0,0,0,667.005,1909.27Zm-1.849,1a1.212,1.212,0,0,1-.555.14,1.341,1.341,0,0,1-1.208-.88,1.611,1.611,0,0,1,.651-2.01,1.216,1.216,0,0,1,.556-0.14,1.343,1.343,0,0,1,1.208.88A1.612,1.612,0,0,1,665.156,1910.27Zm8.179-13.11-0.843-.35a8.357,8.357,0,0,0-.07-2.13l0.814-.43a1.222,1.222,0,0,0,.5-1.53l-0.475-1.18a0.973,0.973,0,0,0-1.346-.57l-0.815.43a6.944,6.944,0,0,0-1.371-1.44l0.311-.96a1.219,1.219,0,0,0-.6-1.49l-1.066-.45a1.013,1.013,0,0,0-1.3.69l-0.311.96a5.579,5.579,0,0,0-1.864.08l-0.375-.93a0.963,0.963,0,0,0-1.347-.56l-1.032.54a1.222,1.222,0,0,0-.5,1.53l0.375,0.93a7.037,7.037,0,0,0-1.266,1.56l-0.841-.35a1,1,0,0,0-1.3.68l-0.394,1.22a1.286,1.286,0,0,0,.03.88,1.055,1.055,0,0,0,.571.6l0.843,0.36a8.249,8.249,0,0,0,.07,2.12l-0.814.43a1.225,1.225,0,0,0-.5,1.53l0.475,1.18a0.973,0.973,0,0,0,1.346.57l0.815-.43a6.892,6.892,0,0,0,1.371,1.44l-0.311.96a1.3,1.3,0,0,0,.03.89,1.082,1.082,0,0,0,.57.6l1.066,0.45a0.918,0.918,0,0,0,.776-0.04,1.1,1.1,0,0,0,.527-0.65l0.312-.96a5.579,5.579,0,0,0,1.864-.08l0.375,0.93a0.974,0.974,0,0,0,1.347.57l1.031-.55a1.22,1.22,0,0,0,.5-1.53l-0.375-.93a6.981,6.981,0,0,0,1.266-1.56l0.843,0.35a0.884,0.884,0,0,0,.777-0.03,1.109,1.109,0,0,0,.526-0.65l0.394-1.22A1.206,1.206,0,0,0,673.335,1897.16Zm-5.582,3.02a3.568,3.568,0,0,1-1.678.42,4.023,4.023,0,0,1-3.647-2.66,4.869,4.869,0,0,1,1.966-6.07,3.564,3.564,0,0,1,1.677-.42,4.041,4.041,0,0,1,3.648,2.66A4.867,4.867,0,0,1,667.753,1900.18Z" transform="translate(-652 -1886.97)"/>
</svg>
