<svg xmlns="http://www.w3.org/2000/svg" xmlns:xlink="http://www.w3.org/1999/xlink" width="41.062" height="45" viewBox="0 0 41.062 45">
  <defs>
    <style>
      .cls-1 {
        fill-rule: evenodd;
        filter: url(#filter);
      }
    </style>
    <filter id="filter" x="493.969" y="910" width="41.062" height="45" filterUnits="userSpaceOnUse">
      <feFlood result="flood" flood-color="#431d91"/>
      <feComposite result="composite" operator="in" in2="SourceGraphic"/>
      <feBlend result="blend" in2="SourceGraphic"/>
    </filter>
  </defs>
  <path id="icon" class="cls-1" d="M532.088,932.5c0.1-.14.212-0.282,0.306-0.424,2.743-4.131,3.344-7.975,1.69-10.824-1.495-2.574-4.692-3.994-9-3.994-0.578,0-1.172.031-1.778,0.08-2.153-4.518-5.269-7.334-8.8-7.334s-6.651,2.816-8.8,7.334c-0.606-.049-1.2-0.08-1.78-0.08-4.311,0-7.508,1.42-9,3.994-1.653,2.847-1.053,6.693,1.688,10.824,0.1,0.141.208,0.282,0.307,0.424-0.1.144-.211,0.285-0.307,0.427-2.741,4.132-3.343,7.974-1.688,10.822,1.494,2.575,4.691,4,9,4,0.579,0,1.174-.033,1.78-0.083,2.152,4.519,5.268,7.335,8.8,7.335s6.651-2.816,8.8-7.335c0.606,0.052,1.2.083,1.778,0.083,4.311,0,7.509-1.422,9-4,1.653-2.848,1.053-6.693-1.688-10.824C532.3,932.784,532.187,932.643,532.088,932.5Zm-7-13.1c3.506,0,6.041,1.038,7.136,2.924,1.2,2.067.659,5.041-1.506,8.382a33.975,33.975,0,0,0-4.859-4.722,33.632,33.632,0,0,0-1.66-6.543C524.491,919.429,524.794,919.4,525.085,919.4Zm-5.739,21.45a41.009,41.009,0,0,1-4.846,2.364,40.381,40.381,0,0,1-9.324-5.345,39.442,39.442,0,0,1,0-10.736,40.477,40.477,0,0,1,9.324-5.345,40.784,40.784,0,0,1,4.846,2.365,41.6,41.6,0,0,1,4.478,2.98,39.442,39.442,0,0,1,0,10.736A41.159,41.159,0,0,1,519.346,940.85Zm3.939,0.049a29.929,29.929,0,0,1-1.332,4.445,29.435,29.435,0,0,1-4.561-1.069c1.021-.482,2.032-1,3.032-1.569S522.364,941.525,523.285,940.9Zm-11.676,3.376a29.473,29.473,0,0,1-4.562,1.069,30.362,30.362,0,0,1-1.331-4.444c0.923,0.628,1.869,1.237,2.861,1.806S510.591,943.792,511.609,944.275Zm-8.809-8.381a29.019,29.019,0,0,1-3.21-3.395,29.407,29.407,0,0,1,3.21-3.393c-0.085,1.108-.143,2.235-0.143,3.393S502.715,934.787,502.8,935.894Zm2.918-11.792a29.913,29.913,0,0,1,1.331-4.443,29.125,29.125,0,0,1,4.562,1.068c-1.018.483-2.032,1-3.032,1.57S506.639,923.476,505.718,924.1Zm11.676-3.375a29.555,29.555,0,0,1,4.562-1.068,30.252,30.252,0,0,1,1.331,4.444c-0.921-.627-1.869-1.239-2.861-1.806S518.413,921.21,517.394,920.727Zm8.81,8.381a29.577,29.577,0,0,1,3.21,3.391,29.273,29.273,0,0,1-3.21,3.395c0.084-1.108.142-2.234,0.142-3.395S526.288,930.214,526.2,929.108Zm-11.7-16.961c2.49,0,4.789,2.108,6.526,5.485a34.67,34.67,0,0,0-6.526,1.846,34.775,34.775,0,0,0-6.527-1.846C509.713,914.257,512.011,912.147,514.5,912.147Zm-17.718,10.177c1.094-1.886,3.629-2.924,7.136-2.924,0.289,0,.592.029,0.89,0.041a33.6,33.6,0,0,0-1.66,6.543,33.886,33.886,0,0,0-4.861,4.722C496.126,927.365,495.582,924.393,496.784,922.324ZM503.92,945.6c-3.507,0-6.042-1.038-7.136-2.923-1.2-2.069-.658-5.042,1.5-8.384a33.886,33.886,0,0,0,4.861,4.722,33.481,33.481,0,0,0,1.66,6.544C504.512,945.573,504.209,945.6,503.92,945.6Zm10.582,7.253c-2.491,0-4.789-2.108-6.527-5.484a34.893,34.893,0,0,0,6.527-1.846,34.778,34.778,0,0,0,6.526,1.846C519.291,950.745,516.991,952.853,514.5,952.853Zm17.716-10.176c-1.093,1.885-3.627,2.923-7.136,2.923-0.288,0-.591-0.027-0.889-0.041a33.626,33.626,0,0,0,1.66-6.546,34.087,34.087,0,0,0,4.861-4.72C532.876,937.635,533.421,940.608,532.218,942.677ZM514.5,929.162c-1.465-1.308-4.5-1.352-4.784,1.359-0.364,3.486,4.784,6.186,4.784,6.186s5.146-2.7,4.783-6.186C519,927.81,515.966,927.855,514.5,929.162Z" transform="translate(-493.969 -910)"/>
</svg>
