<svg  xmlns="http://www.w3.org/2000/svg">
 
<path fill-rule="evenodd"  fill="rgb(0, 0, 0)"
 d="M11.500,-0.002 C5.158,-0.002 -0.002,5.192 -0.002,11.576 C-0.002,14.148 1.629,18.340 4.985,24.393 C7.358,28.674 9.692,32.243 9.790,32.393 L11.500,35.002 L13.210,32.393 C13.308,32.243 15.642,28.674 18.015,24.393 C21.371,18.340 23.001,14.148 23.001,11.576 C23.002,5.192 17.842,-0.002 11.500,-0.002 ZM11.500,17.500 C8.207,17.500 5.538,14.813 5.538,11.498 C5.538,8.183 8.207,5.496 11.500,5.496 C14.793,5.496 17.462,8.183 17.462,11.498 C17.462,14.813 14.793,17.500 11.500,17.500 Z"/>

</svg>