<svg xmlns="http://www.w3.org/2000/svg" xmlns:xlink="http://www.w3.org/1999/xlink" width="17" height="14" viewBox="0 0 17 14">
  <defs>
    <style>
      .cls-1 {
        fill-rule: evenodd;
        filter: url(#filter);
      }
    </style>
    <filter id="filter" x="1249" y="1892" width="17" height="14" filterUnits="userSpaceOnUse">
      <feFlood result="flood" flood-color="#612acf"/>
      <feComposite result="composite" operator="in" in2="SourceGraphic"/>
      <feBlend result="blend" in2="SourceGraphic"/>
    </filter>
  </defs>
  <path id="icon" class="cls-1" d="M1265.1,1896.94l-6.36-.01a16.8,16.8,0,0,0,.44-1.87,3.294,3.294,0,0,0-.06-1.21,4.912,4.912,0,0,0-.64-1.45,0.927,0.927,0,0,0-.79-0.4h-1.24a0.834,0.834,0,0,0-.89.76c0,0.7,0,1.63-.02,1.66a17.464,17.464,0,0,1-1.67,2.46,9.106,9.106,0,0,1-.94,1.03,0.668,0.668,0,0,0-.24.51v6.6a0.684,0.684,0,0,0,.25.52,2.011,2.011,0,0,0,1.37.46c2.23-.01,5.84-0.02,8.4-0.01a0.949,0.949,0,0,0,.78-0.37l2.26-3.27a1.414,1.414,0,0,0,.24-0.74l0.01-3.91A0.837,0.837,0,0,0,1265.1,1896.94Zm-14.4,1.08h-0.8a0.83,0.83,0,0,0-.9.75v6.48a0.836,0.836,0,0,0,.9.75h0.8a0.833,0.833,0,0,0,.89-0.75v-6.48A0.826,0.826,0,0,0,1250.7,1898.02Z" transform="translate(-1249 -1892)"/>
</svg>
