<svg xmlns="http://www.w3.org/2000/svg" xmlns:xlink="http://www.w3.org/1999/xlink" width="36" height="29" viewBox="0 0 36 29">
  <defs>
    <style>
      .cls-1 {
        fill-rule: evenodd;
        filter: url(#filter);
      }
    </style>
    <filter id="filter" x="1088" y="920" width="36" height="29" filterUnits="userSpaceOnUse">
      <feFlood result="flood" flood-color="#431d91"/>
      <feComposite result="composite" operator="in" in2="SourceGraphic"/>
      <feBlend result="blend" in2="SourceGraphic"/>
    </filter>
  </defs>
  <path id="icon" class="cls-1" d="M1094.95,929.082a4.682,4.682,0,0,1,8.35-2.231l1.66,2.168a4.655,4.655,0,0,1,2.23-.6,9.4,9.4,0,1,0-17.49,1.486c0.11,0.11,5.5,5.465,7.48,7.437a1.03,1.03,0,0,0,1.45,0c0.16-.155.34-0.338,0.54-0.532l-3.29-4.279A4.649,4.649,0,0,1,1094.95,929.082Zm28.57,9.238-6.11-7.954a2.35,2.35,0,0,0-3.29-.432,2.24,2.24,0,0,0-.66.791,2.354,2.354,0,0,0-1.8-.832,2.344,2.344,0,0,0-2.32,2.059l-0.23-.293a2.341,2.341,0,0,0-4.18,1.141l-3.49-4.535a2.332,2.332,0,0,0-1.86-.915,2.306,2.306,0,0,0-1.42.484,2.342,2.342,0,0,0-.44,3.28l8.74,11.362-1.62-.459a2.34,2.34,0,0,0-2.89,1.611,2.329,2.329,0,0,0,1.61,2.89l8.43,2.393a2.346,2.346,0,0,0,2.03-.367l9.07-6.945A2.339,2.339,0,0,0,1123.52,938.32Z" transform="translate(-1088 -920)"/>
</svg>
