<svg xmlns="http://www.w3.org/2000/svg" xmlns:xlink="http://www.w3.org/1999/xlink" width="20" height="18" viewBox="0 0 20 18">
  <defs>
    <style>
      .cls-1 {
        fill-rule: evenodd;
        filter: url(#filter);
      }
    </style>
    <filter id="filter" x="705" y="4379" width="20" height="18" filterUnits="userSpaceOnUse">
      <feFlood result="flood" flood-color="#fff"/>
      <feComposite result="composite" operator="in" in2="SourceGraphic"/>
      <feBlend result="blend" in2="SourceGraphic"/>
    </filter>
  </defs>
  <path id="icon" class="cls-1" d="M711.889,4385.6h-0.037a0.316,0.316,0,0,0-.3.22l-0.573,1.73-0.576-1.73a0.314,0.314,0,0,0-.3-0.22h-0.052a0.316,0.316,0,0,0-.3.22l-0.573,1.73-0.576-1.73a0.313,0.313,0,0,0-.3-0.22h-0.037a0.317,0.317,0,0,0-.254.13,0.333,0.333,0,0,0-.042.29l0.885,2.6a0.306,0.306,0,0,0,.295.21h0.046a0.3,0.3,0,0,0,.295-0.21l0.58-1.72,0.577,1.72a0.306,0.306,0,0,0,.3.21h0.046a0.306,0.306,0,0,0,.295-0.21l0.884-2.6a0.33,0.33,0,0,0-.041-0.29A0.317,0.317,0,0,0,711.889,4385.6Zm4.327,0h-0.037a0.315,0.315,0,0,0-.3.22l-0.573,1.73-0.576-1.73a0.315,0.315,0,0,0-.3-0.22h-0.053a0.315,0.315,0,0,0-.3.22l-0.573,1.73-0.576-1.73a0.314,0.314,0,0,0-.3-0.22h-0.036a0.317,0.317,0,0,0-.254.13,0.33,0.33,0,0,0-.042.29l0.885,2.6a0.305,0.305,0,0,0,.295.21h0.045a0.306,0.306,0,0,0,.3-0.21l0.58-1.72,0.577,1.72a0.306,0.306,0,0,0,.3.21h0.045a0.306,0.306,0,0,0,.3-0.21l0.884-2.6a0.327,0.327,0,0,0-.042-0.29A0.315,0.315,0,0,0,716.216,4385.6Zm4.327,0h-0.037a0.314,0.314,0,0,0-.3.22l-0.573,1.73-0.576-1.73a0.316,0.316,0,0,0-.3-0.22h-0.053a0.314,0.314,0,0,0-.3.22l-0.573,1.73-0.576-1.73a0.316,0.316,0,0,0-.3-0.22h-0.037a0.315,0.315,0,0,0-.253.13,0.33,0.33,0,0,0-.042.29l0.884,2.6a0.306,0.306,0,0,0,.3.21h0.045a0.306,0.306,0,0,0,.3-0.21l0.58-1.72,0.577,1.72a0.306,0.306,0,0,0,.3.21h0.045a0.3,0.3,0,0,0,.295-0.21l0.885-2.6a0.33,0.33,0,0,0-.042-0.29A0.315,0.315,0,0,0,720.543,4385.6Zm-14.185,9.13v-11.69h16.107v6.69a1.759,1.759,0,0,1,1.161-.43c0.066,0,.132.01,0.2,0.01v-9.18a1.134,1.134,0,0,0-1.131-1.13h-16.56a1.134,1.134,0,0,0-1.131,1.13v14.83a1.134,1.134,0,0,0,1.131,1.13h10.791a4.013,4.013,0,0,1-.549-1.36H706.358Zm14.865-13.83a0.42,0.42,0,0,1,.418-0.42h0.417a0.42,0.42,0,0,1,.418.42v0.47a0.42,0.42,0,0,1-.418.42h-0.417a0.42,0.42,0,0,1-.418-0.42v-0.47Zm-1.942,0a0.42,0.42,0,0,1,.418-0.42h0.417a0.42,0.42,0,0,1,.418.42v0.47a0.42,0.42,0,0,1-.418.42H719.7a0.42,0.42,0,0,1-.418-0.42v-0.47Zm-1.942,0a0.42,0.42,0,0,1,.418-0.42h0.417a0.42,0.42,0,0,1,.418.42v0.47a0.42,0.42,0,0,1-.418.42h-0.417a0.42,0.42,0,0,1-.418-0.42v-0.47Zm7.66,10.8a0.823,0.823,0,0,0-.241-0.58l-0.617-.62a0.827,0.827,0,0,0-1.165,0l-0.94.94a3.067,3.067,0,1,0,1.281,2.5c0-.07,0-0.14-0.007-0.21l1.448-1.45A0.805,0.805,0,0,0,725,4391.7Zm-0.91.19-2.948,2.94a0.345,0.345,0,0,1-.235.1h0a0.342,0.342,0,0,1-.234-0.1l-1.366-1.37a0.322,0.322,0,0,1,0-.46l0.263-.27a0.33,0.33,0,0,1,.468,0l0.869,0.87,2.449-2.45a0.324,0.324,0,0,1,.468,0l0.266,0.27A0.334,0.334,0,0,1,724.089,4391.89Z" transform="translate(-705 -4379)"/>
</svg>
